<?xml version="1.0" standalone="no"?>
<!DOCTYPE svg PUBLIC "-//W3C//DTD SVG 20010904//EN"
 "http://www.w3.org/TR/2001/REC-SVG-20010904/DTD/svg10.dtd">
<svg version="1.0" xmlns="http://www.w3.org/2000/svg"
 width="16.000000pt" height="16.000000pt" viewBox="0 0 16.000000 16.000000"
 preserveAspectRatio="xMidYMid meet">
<metadata>
Created by potrace 1.11, written by Peter Selinger 2001-2013
</metadata>
<g transform="translate(0.000000,16.000000) scale(0.002500,-0.002500)"
fill="#000000" stroke="none">
<path d="M3018 5995 c-1 -1 -39 -5 -83 -9 -388 -32 -820 -172 -1155 -374 -540
-325 -930 -774 -1170 -1348 -23 -54 -43 -106 -45 -114 -2 -8 -17 -55 -34 -105
-52 -154 -94 -358 -120 -595 -9 -79 -7 -477 3 -545 4 -22 11 -71 16 -110 5
-38 12 -81 15 -95 22 -113 29 -141 41 -185 7 -27 16 -61 19 -75 11 -42 57
-183 70 -215 91 -222 142 -327 228 -469 306 -508 757 -899 1307 -1134 153 -65
363 -132 510 -161 30 -6 66 -14 80 -16 183 -37 547 -52 766 -32 521 47 1038
253 1459 583 83 65 111 90 211 184 350 331 616 770 752 1240 34 117 78 324 87
415 4 33 9 71 12 85 9 46 10 454 2 535 -5 44 -18 136 -29 205 -18 108 -30 164
-65 300 -17 64 -68 216 -76 225 -5 5 -9 15 -9 22 0 23 -107 253 -166 359 -274
486 -679 875 -1169 1124 -404 206 -782 299 -1237 305 -119 2 -218 2 -220 0z
m417 -808 c11 -3 40 -8 65 -11 197 -27 412 -96 603 -193 513 -261 891 -730
1031 -1278 14 -55 28 -117 32 -139 3 -21 8 -48 10 -60 19 -89 25 -389 12 -521
-15 -148 -77 -405 -123 -510 -7 -16 -26 -59 -41 -95 -15 -36 -36 -77 -47 -92
-10 -16 -16 -28 -13 -28 7 0 -103 -176 -155 -247 -219 -300 -556 -554 -910
-686 -94 -35 -248 -79 -319 -91 -19 -3 -46 -8 -60 -11 -92 -20 -421 -27 -541
-13 -83 10 -191 28 -200 33 -3 3 -24 7 -45 11 -79 12 -283 86 -409 148 -400
197 -707 499 -909 895 -49 97 -123 278 -132 325 -2 10 -8 33 -14 51 -12 37
-13 41 -42 195 -29 162 -31 483 -3 645 86 498 319 904 700 1223 294 246 703
419 1060 449 38 3 72 7 74 9 6 5 349 -4 376 -9z"/>
<path d="M3010 4989 c-109 -14 -136 -18 -206 -33 -110 -24 -273 -81 -386 -137
-493 -242 -832 -661 -967 -1195 -11 -43 -23 -101 -27 -129 -3 -27 -9 -59 -11
-70 -9 -40 -11 -352 -2 -425 10 -82 35 -218 49 -265 169 -570 551 -1000 1072
-1206 77 -30 209 -72 263 -83 60 -13 81 -16 112 -22 222 -37 518 -24 738 32
498 128 926 470 1155 924 139 274 197 518 198 825 0 596 -297 1152 -798 1492
-211 143 -496 251 -760 286 -109 15 -335 18 -430 6z m395 -403 c64 -10 77 -13
143 -30 549 -143 960 -603 1039 -1160 9 -68 9 -316 0 -391 -18 -141 -74 -311
-149 -456 -125 -242 -345 -461 -588 -588 -138 -72 -237 -104 -445 -147 -48
-10 -327 -13 -376 -4 -24 4 -62 10 -84 13 -92 13 -265 72 -376 127 -409 207
-692 604 -757 1065 -9 65 -9 316 1 380 62 429 322 808 702 1024 145 83 349
152 490 167 33 3 62 7 64 9 5 6 292 -2 336 -9z"/>
<path d="M3108 4215 c-2 -1 -23 -5 -48 -8 -184 -24 -372 -116 -506 -251 -90
-91 -127 -141 -180 -246 -86 -171 -120 -344 -111 -560 3 -74 8 -146 11 -160 3
-14 8 -38 12 -55 13 -65 46 -163 79 -230 131 -272 361 -448 665 -507 69 -13
289 -17 355 -6 325 54 578 242 708 528 27 60 57 144 63 180 2 8 6 31 10 50 34
167 28 393 -16 560 -95 367 -362 616 -745 695 -30 7 -291 15 -297 10z m219
-349 c136 -14 266 -93 345 -209 82 -120 119 -252 122 -432 5 -250 -56 -429
-191 -560 -167 -161 -493 -186 -693 -52 -174 116 -264 331 -255 612 4 134 7
159 30 238 39 136 118 250 216 316 125 83 234 106 426 87z"/>
</g>
</svg>
